solid ASCII
  facet normal 0.000000e+00 0.000000e+00 1.000000e+00
    outer loop
      vertex   2.641916e+00 1.627344e+00 2.086614e+00
      vertex   3.106549e+00 -4.305357e-01 2.086614e+00
      vertex   3.076899e+00 5.980920e-01 2.086614e+00
    endloop
  endfacet
  facet normal 0.000000e+00 0.000000e+00 1.000000e+00
    outer loop
      vertex   2.641916e+00 1.627344e+00 2.086614e+00
      vertex   2.779700e+00 -1.416784e+00 2.086614e+00
      vertex   3.106549e+00 -4.305357e-01 2.086614e+00
    endloop
  endfacet
  facet normal 0.000000e+00 0.000000e+00 1.000000e+00
    outer loop
      vertex   2.641916e+00 1.627344e+00 2.086614e+00
      vertex   2.261549e+00 -2.122780e+00 2.086614e+00
      vertex   2.779700e+00 -1.416784e+00 2.086614e+00
    endloop
  endfacet
  facet normal 0.000000e+00 0.000000e+00 1.000000e+00
    outer loop
      vertex   2.174021e+00 2.193438e+00 2.086614e+00
      vertex   2.261549e+00 -2.122780e+00 2.086614e+00
      vertex   2.641916e+00 1.627344e+00 2.086614e+00
    endloop
  endfacet
  facet normal 0.000000e+00 0.000000e+00 1.000000e+00
    outer loop
      vertex   2.174021e+00 2.193438e+00 2.086614e+00
      vertex   -1.155645e+00 -2.155352e+00 2.086614e+00
      vertex   2.261549e+00 -2.122780e+00 2.086614e+00
    endloop
  endfacet
  facet normal -0.000000e+00 0.000000e+00 1.000000e+00
    outer loop
      vertex   -1.155645e+00 2.155893e+00 2.086614e+00
      vertex   -1.155645e+00 -2.155352e+00 2.086614e+00
      vertex   2.174021e+00 2.193438e+00 2.086614e+00
    endloop
  endfacet
  facet normal 8.389437e-01 -5.435318e-01 -2.732525e-02
    outer loop
      vertex   2.926485e+00 -1.107091e+00 4.330709e-01
      vertex   2.779700e+00 -1.416784e+00 2.086614e+00
      vertex   2.307570e+00 -2.062389e+00 4.330709e-01
    endloop
  endfacet
  facet normal 9.489259e-01 -3.144800e-01 2.533700e-02
    outer loop
      vertex   2.779700e+00 -1.416784e+00 2.086614e+00
      vertex   2.926485e+00 -1.107091e+00 4.330709e-01
      vertex   3.106549e+00 -4.305357e-01 2.086614e+00
    endloop
  endfacet
  facet normal 9.788111e-01 -2.034289e-01 -2.335451e-02
    outer loop
      vertex   3.137983e+00 -8.945359e-02 4.330709e-01
      vertex   3.106549e+00 -4.305357e-01 2.086614e+00
      vertex   2.926485e+00 -1.107091e+00 4.330709e-01
    endloop
  endfacet
  facet normal 9.992740e-01 2.880363e-02 2.493789e-02
    outer loop
      vertex   3.106549e+00 -4.305357e-01 2.086614e+00
      vertex   3.137983e+00 -8.945359e-02 4.330709e-01
      vertex   3.076899e+00 5.980920e-01 2.086614e+00
    endloop
  endfacet
  facet normal 9.956627e-01 9.301718e-02 -1.895602e-03
    outer loop
      vertex   3.065667e+00 6.846215e-01 4.330709e-01
      vertex   3.076899e+00 5.980920e-01 2.086614e+00
      vertex   3.137983e+00 -8.945359e-02 4.330709e-01
    endloop
  endfacet
  facet normal 9.207654e-01 3.891341e-01 2.767077e-02
    outer loop
      vertex   3.076899e+00 5.980920e-01 2.086614e+00
      vertex   2.783938e+00 1.408873e+00 4.330709e-01
      vertex   2.641916e+00 1.627344e+00 2.086614e+00
    endloop
  endfacet
  facet normal 9.318976e-01 3.625011e-01 1.263955e-02
    outer loop
      vertex   2.783938e+00 1.408873e+00 4.330709e-01
      vertex   3.076899e+00 5.980920e-01 2.086614e+00
      vertex   3.065667e+00 6.846215e-01 4.330709e-01
    endloop
  endfacet
  facet normal 8.054111e-01 5.926463e-01 -9.125511e-03
    outer loop
      vertex   2.260101e+00 2.120773e+00 4.330709e-01
      vertex   2.641916e+00 1.627344e+00 2.086614e+00
      vertex   2.783938e+00 1.408873e+00 4.330709e-01
    endloop
  endfacet
  facet normal 7.707359e-01 6.370393e-01 1.212844e-02
    outer loop
      vertex   2.260101e+00 2.120773e+00 4.330709e-01
      vertex   2.174021e+00 2.193438e+00 2.086614e+00
      vertex   2.641916e+00 1.627344e+00 2.086614e+00
    endloop
  endfacet
  facet normal -1.126402e-02 9.989466e-01 -4.448496e-02
    outer loop
      vertex   2.260101e+00 2.120773e+00 4.330709e-01
      vertex   -1.155645e+00 2.155893e+00 2.086614e+00
      vertex   2.174021e+00 2.193438e+00 2.086614e+00
    endloop
  endfacet
  facet normal 1.028119e-02 9.999471e-01 0.000000e+00
    outer loop
      vertex   -1.155645e+00 2.155893e+00 2.086614e+00
      vertex   2.260101e+00 2.120773e+00 4.330709e-01
      vertex   -1.155645e+00 2.155893e+00 4.330709e-01
    endloop
  endfacet
  facet normal -9.999897e-01 -4.546715e-03 0.000000e+00
    outer loop
      vertex   -1.135953e+00 -2.175036e+00 4.330709e-01
      vertex   -1.155645e+00 2.155893e+00 2.086614e+00
      vertex   -1.155645e+00 2.155893e+00 4.330709e-01
    endloop
  endfacet
  facet normal -9.999291e-01 -5.529765e-08 -1.190780e-02
    outer loop
      vertex   -1.155645e+00 2.155893e+00 2.086614e+00
      vertex   -1.135953e+00 -2.175036e+00 4.330709e-01
      vertex   -1.155645e+00 -2.155352e+00 2.086614e+00
    endloop
  endfacet
  facet normal 9.530617e-03 -9.998824e-01 1.201671e-02
    outer loop
      vertex   -1.135953e+00 -2.175036e+00 4.330709e-01
      vertex   2.261549e+00 -2.122780e+00 2.086614e+00
      vertex   -1.155645e+00 -2.155352e+00 2.086614e+00
    endloop
  endfacet
  facet normal 3.267456e-02 -9.988329e-01 -3.556984e-02
    outer loop
      vertex   2.261549e+00 -2.122780e+00 2.086614e+00
      vertex   -1.135953e+00 -2.175036e+00 4.330709e-01
      vertex   2.307570e+00 -2.062389e+00 4.330709e-01
    endloop
  endfacet
  facet normal 8.061756e-01 -5.916758e-01 8.281688e-04
    outer loop
      vertex   2.261549e+00 -2.122780e+00 2.086614e+00
      vertex   2.307570e+00 -2.062389e+00 4.330709e-01
      vertex   2.779700e+00 -1.416784e+00 2.086614e+00
    endloop
  endfacet
  facet normal 0.000000e+00 0.000000e+00 -1.000000e+00
    outer loop
      vertex   2.926485e+00 -1.107091e+00 4.330709e-01
      vertex   3.065667e+00 6.846215e-01 4.330709e-01
      vertex   3.137983e+00 -8.945359e-02 4.330709e-01
    endloop
  endfacet
  facet normal 0.000000e+00 0.000000e+00 -1.000000e+00
    outer loop
      vertex   2.926485e+00 -1.107091e+00 4.330709e-01
      vertex   2.783938e+00 1.408873e+00 4.330709e-01
      vertex   3.065667e+00 6.846215e-01 4.330709e-01
    endloop
  endfacet
  facet normal 0.000000e+00 0.000000e+00 -1.000000e+00
    outer loop
      vertex   2.307570e+00 -2.062389e+00 4.330709e-01
      vertex   2.783938e+00 1.408873e+00 4.330709e-01
      vertex   2.926485e+00 -1.107091e+00 4.330709e-01
    endloop
  endfacet
  facet normal 0.000000e+00 0.000000e+00 -1.000000e+00
    outer loop
      vertex   2.307570e+00 -2.062389e+00 4.330709e-01
      vertex   2.260101e+00 2.120773e+00 4.330709e-01
      vertex   2.783938e+00 1.408873e+00 4.330709e-01
    endloop
  endfacet
  facet normal 0.000000e+00 0.000000e+00 -1.000000e+00
    outer loop
      vertex   -1.135953e+00 -2.175036e+00 4.330709e-01
      vertex   2.260101e+00 2.120773e+00 4.330709e-01
      vertex   2.307570e+00 -2.062389e+00 4.330709e-01
    endloop
  endfacet
  facet normal 0.000000e+00 0.000000e+00 -1.000000e+00
    outer loop
      vertex   -1.135953e+00 -2.175036e+00 4.330709e-01
      vertex   -1.155645e+00 2.155893e+00 4.330709e-01
      vertex   2.260101e+00 2.120773e+00 4.330709e-01
    endloop
  endfacet
endsolid
